<svg width="30" height="42" viewBox="0 0 30 42" fill="none" xmlns="http://www.w3.org/2000/svg">
<path d="M24.2308 0H5.76923C2.58462 0 0 2.13818 0 4.77273V37.2273C0 39.8618 2.58462 42 5.76923 42H24.2308C27.4154 42 30 39.8618 30 37.2273V4.77273C30 2.13818 27.4154 0 24.2308 0ZM15 40.0909C13.0846 40.0909 11.5385 38.8118 11.5385 37.2273C11.5385 35.6427 13.0846 34.3636 15 34.3636C16.9154 34.3636 18.4615 35.6427 18.4615 37.2273C18.4615 38.8118 16.9154 40.0909 15 40.0909ZM25.3846 32.4545H4.61538V5.72727H25.3846V32.4545Z" fill="url(#paint0_linear_28_2746)"/>
<defs>
<linearGradient id="paint0_linear_28_2746" x1="15" y1="0" x2="15" y2="42" gradientUnits="userSpaceOnUse">
<stop stop-color="#B629F8"/>
<stop offset="1" stop-color="#800ADD"/>
</linearGradient>
</defs>
</svg>
