<svg width="13" height="14" viewBox="0 0 13 14" fill="none" xmlns="http://www.w3.org/2000/svg">
<path d="M11.5 0H1.5V1.16667H11.5V0ZM1.5 14H11.5V12.8333H1.5V14ZM11.5 2.33333H1.5C0.8125 2.33333 0.25 2.85833 0.25 3.5V10.5C0.25 11.1417 0.8125 11.6667 1.5 11.6667H11.5C12.1875 11.6667 12.75 11.1417 12.75 10.5V3.5C12.75 2.85833 12.1875 2.33333 11.5 2.33333ZM6.5 3.9375C7.275 3.9375 7.90625 4.52667 7.90625 5.25C7.90625 5.97333 7.275 6.5625 6.5 6.5625C5.725 6.5625 5.09375 5.97333 5.09375 5.25C5.09375 4.52667 5.725 3.9375 6.5 3.9375ZM9.625 9.91667H3.375V9.04167C3.375 8.0675 5.45625 7.58333 6.5 7.58333C7.54375 7.58333 9.625 8.0675 9.625 9.04167V9.91667Z" fill="url(#paint0_linear_27_2738)"/>
<defs>
<linearGradient id="paint0_linear_27_2738" x1="6.5" y1="0" x2="6.5" y2="14" gradientUnits="userSpaceOnUse">
<stop stop-color="#B75CFF"/>
<stop offset="1" stop-color="#6412A4"/>
</linearGradient>
</defs>
</svg>
