<svg width="30" height="30" viewBox="0 0 30 30" fill="none" xmlns="http://www.w3.org/2000/svg">
<path d="M22.5102 0C19.8499 0 16.985 0.720937 15.0068 2.70351C13.0286 0.720937 10.1637 0 7.50341 0C5.52524 0 3.42428 0.396515 1.66439 1.42385C0.668486 2.01862 0 3.29829 0 4.75819V25.0886C0 27.4317 1.66439 29.1619 3.38336 28.5852C4.72033 28.1346 6.13915 27.9363 7.50341 27.9363C9.63165 27.9363 11.8963 28.4049 13.7244 29.5945C14.543 30.1352 15.4707 30.1352 16.2756 29.5945C18.1037 28.3869 20.3683 27.9363 22.4966 27.9363C23.8608 27.9363 25.2797 28.1346 26.6166 28.5852C28.3356 29.1799 30 27.4497 30 25.0886V4.75819C30 3.29829 29.3315 2.01862 28.3356 1.42385C26.5894 0.396515 24.4884 0 22.5102 0ZM27.2851 22.9438C27.2851 24.0793 26.4939 24.9084 25.648 24.7101C24.6248 24.4578 23.5607 24.3497 22.5102 24.3497C20.191 24.3497 16.8486 25.5212 15.0068 27.0532V6.3082C16.8486 4.77621 20.191 3.60469 22.5102 3.60469C23.7653 3.60469 25.0068 3.7669 26.1937 4.10934C26.8213 4.28958 27.2851 5.02854 27.2851 5.87564V22.9438Z" fill="url(#paint0_linear_2_104)"/>
<path d="M17.708 11.7332C17.2715 11.7332 16.8759 11.3728 16.7394 10.796C16.5621 10.0931 16.8622 9.3181 17.3943 9.10181C19.4952 8.20064 22.2101 7.91227 24.7067 8.29076C25.266 8.38088 25.6753 9.04774 25.6071 9.7867C25.5389 10.5257 25.0341 11.0664 24.4748 10.9763C22.2647 10.6338 19.8499 10.9042 18.0218 11.6792C17.9127 11.6972 17.8035 11.7332 17.708 11.7332Z" fill="url(#paint1_linear_2_104)"/>
<path d="M17.708 16.5275C17.2715 16.5275 16.8759 16.167 16.7394 15.5903C16.5621 14.8874 16.8622 14.1123 17.3943 13.8961C19.4816 12.9949 22.2101 12.7065 24.7067 13.085C25.266 13.1751 25.6753 13.842 25.6071 14.581C25.5389 15.3199 25.0341 15.8606 24.4748 15.7705C22.2647 15.4281 19.8499 15.6984 18.0218 16.4734C17.9127 16.5095 17.8035 16.5275 17.708 16.5275Z" fill="url(#paint2_linear_2_104)"/>
<path d="M17.708 21.3217C17.2715 21.3217 16.8759 20.9613 16.7394 20.3845C16.5621 19.6816 16.8622 18.9066 17.3943 18.6903C19.4816 17.7891 22.2101 17.5008 24.7067 17.8793C25.266 17.9694 25.6753 18.6362 25.6071 19.3752C25.5389 20.1142 25.0341 20.6368 24.4748 20.5648C22.2647 20.2223 19.8499 20.4927 18.0218 21.2677C17.9127 21.3037 17.8035 21.3217 17.708 21.3217Z" fill="url(#paint3_linear_2_104)"/>
<defs>
<linearGradient id="paint0_linear_2_104" x1="15" y1="0" x2="15" y2="30" gradientUnits="userSpaceOnUse">
<stop stop-color="#B629F8"/>
<stop offset="1" stop-color="#800ADD"/>
</linearGradient>
<linearGradient id="paint1_linear_2_104" x1="21.1514" y1="8.12839" x2="21.1514" y2="11.7332" gradientUnits="userSpaceOnUse">
<stop stop-color="#B629F8"/>
<stop offset="1" stop-color="#800ADD"/>
</linearGradient>
<linearGradient id="paint2_linear_2_104" x1="21.1514" y1="12.9226" x2="21.1514" y2="16.5275" gradientUnits="userSpaceOnUse">
<stop stop-color="#B629F8"/>
<stop offset="1" stop-color="#800ADD"/>
</linearGradient>
<linearGradient id="paint3_linear_2_104" x1="21.1514" y1="17.7169" x2="21.1514" y2="21.3217" gradientUnits="userSpaceOnUse">
<stop stop-color="#B629F8"/>
<stop offset="1" stop-color="#800ADD"/>
</linearGradient>
</defs>
</svg>
