<svg width="12" height="14" viewBox="0 0 12 14" fill="none" xmlns="http://www.w3.org/2000/svg">
<path d="M9 0.5625C8.025 0.5625 6.975 0.879167 6.25 1.75C5.525 0.879167 4.475 0.5625 3.5 0.5625C2.775 0.5625 2.005 0.736667 1.36 1.18792C0.995 1.44917 0.75 2.01125 0.75 2.6525V11.5825C0.75 12.6117 1.36 13.3717 1.99 13.1183C2.48 12.9204 3 12.8333 3.5 12.8333C4.28 12.8333 5.11 13.0392 5.78 13.5617C6.08 13.7992 6.42 13.7992 6.715 13.5617C7.385 13.0312 8.215 12.8333 8.995 12.8333C9.495 12.8333 10.015 12.9204 10.505 13.1183C11.135 13.3796 11.745 12.6196 11.745 11.5825V2.6525C11.745 2.01125 11.5 1.44917 11.135 1.18792C10.495 0.736667 9.725 0.5625 9 0.5625ZM10.75 10.6404C10.75 11.1392 10.46 11.5033 10.15 11.4162C9.775 11.3054 9.385 11.2579 9 11.2579C8.15 11.2579 6.925 11.7725 6.25 12.4454V3.33333C6.925 2.66042 8.15 2.14583 9 2.14583C9.46 2.14583 9.915 2.21708 10.35 2.3675C10.58 2.44667 10.75 2.77125 10.75 3.14333V10.6404Z" fill="url(#paint0_linear_15_19)"/>
<path d="M7.24 5.71622C7.08 5.71622 6.935 5.55788 6.885 5.30455C6.82 4.9958 6.93 4.65538 7.125 4.56038C7.895 4.16455 8.89 4.03788 9.805 4.20413C10.01 4.24372 10.16 4.53663 10.135 4.86122C10.11 5.1858 9.925 5.4233 9.72 5.38372C8.91 5.2333 8.025 5.35205 7.355 5.69247C7.315 5.70038 7.275 5.71622 7.24 5.71622Z" fill="url(#paint1_linear_15_19)"/>
<path d="M7.24 7.82205C7.08 7.82205 6.935 7.66372 6.885 7.41039C6.82 7.10164 6.93 6.76122 7.125 6.66622C7.89 6.27038 8.89 6.14372 9.805 6.30997C10.01 6.34955 10.16 6.64247 10.135 6.96705C10.11 7.29164 9.925 7.52914 9.72 7.48955C8.91 7.33914 8.025 7.45789 7.355 7.7983C7.315 7.81414 7.275 7.82205 7.24 7.82205Z" fill="url(#paint2_linear_15_19)"/>
<path d="M7.24 9.92789C7.08 9.92789 6.935 9.76955 6.885 9.51622C6.82 9.20747 6.93 8.86705 7.125 8.77205C7.89 8.37622 8.89 8.24955 9.805 8.4158C10.01 8.45539 10.16 8.7483 10.135 9.07289C10.11 9.39747 9.925 9.62705 9.72 9.59539C8.91 9.44497 8.025 9.56372 7.355 9.90414C7.315 9.91997 7.275 9.92789 7.24 9.92789Z" fill="url(#paint3_linear_15_19)"/>
<defs>
<linearGradient id="paint0_linear_15_19" x1="6.2475" y1="0.5625" x2="6.2475" y2="13.7398" gradientUnits="userSpaceOnUse">
<stop stop-color="#B629F8"/>
<stop offset="1" stop-color="#800ADD"/>
</linearGradient>
<linearGradient id="paint1_linear_15_19" x1="8.502" y1="4.13281" x2="8.502" y2="5.71622" gradientUnits="userSpaceOnUse">
<stop stop-color="#B629F8"/>
<stop offset="1" stop-color="#800ADD"/>
</linearGradient>
<linearGradient id="paint2_linear_15_19" x1="8.502" y1="6.23865" x2="8.502" y2="7.82205" gradientUnits="userSpaceOnUse">
<stop stop-color="#B629F8"/>
<stop offset="1" stop-color="#800ADD"/>
</linearGradient>
<linearGradient id="paint3_linear_15_19" x1="8.502" y1="8.34448" x2="8.502" y2="9.92789" gradientUnits="userSpaceOnUse">
<stop stop-color="#B629F8"/>
<stop offset="1" stop-color="#800ADD"/>
</linearGradient>
</defs>
</svg>
